<svg>
  <g id="icon-arrow-upload">
    <path fill="currentColor" d="M10.213152,5.0869849 L15.8432183,10.7177261 L16.8523667,9.70857778 L9.4463219,2.30329984 L2.04027712,9.70857778 L3.04942549,10.7177261 L8.67949183,5.0869849 L8.67949183,16.3477925 L10.213152,16.3477925 L10.213152,5.0869849 Z M-9.13047415e-13,9.5 C-9.13047415e-13,4.26181335 4.26181335,0 9.5,0 C14.7381867,0 19,4.26181335 19,9.5 C19,14.7381867 14.7381867,19 9.5,19 C4.26181335,19 -9.13047415e-13,14.7381867 -9.13047415e-13,9.5 Z"></path>
  </g>

  <g id="icon-trust-partners" viewBox="0 0 64 64"  stroke="none" stroke-width="1" fill="none" fill-rule="evenodd">
    <g transform="translate(-115.000000, -935.000000)">
      <g transform="translate(116.000000, 936.000000)">
        <g transform="translate(7.000000, 19.000000)" fill="currentColor">
          <path d="M4.15628889,4.78111111 C3.54542222,4.78333333 3.04562222,5.29277778 3.04616667,5.91888889 C3.04616667,6.54388889 3.54542222,7.05222222 4.15901111,7.05222222 C4.45518889,7.05222222 4.73394444,6.93333333 4.94246667,6.72 C5.15207778,6.50611111 5.26695556,6.22166667 5.26695556,5.91888889 C5.26967778,5.29277778 4.77096667,4.78444444 4.15628889,4.78111111 L4.15628889,4.78111111 Z"></path>
          <path d="M44.8415333,8.17888889 L44.8431667,8.17888889 C45.4338889,8.17888889 45.9886778,7.94333333 46.4079,7.51666667 C46.8260333,7.08888889 47.0563333,6.52 47.0552444,5.91944444 C47.0563333,5.315 46.8276667,4.74777778 46.4089889,4.31944444 C45.5808889,3.47333333 44.1157889,3.45777778 43.2735333,4.32166667 C42.8559444,4.74888889 42.6267333,5.31666667 42.6267333,5.91944444 C42.6272778,7.16333333 43.6198,8.17666667 44.8415333,8.17888889 L44.8415333,8.17888889 Z M44.0569889,5.11555556 C44.2649667,4.90222222 44.5426333,4.78444444 44.8458889,4.78444444 C45.1415222,4.78444444 45.4197333,4.90222222 45.6282556,5.11555556 C45.8373222,5.32888889 45.9532889,5.61333333 45.9516556,5.91777778 C45.9532889,6.22 45.8362333,6.50555556 45.6271667,6.72 C45.4181,6.93333333 45.1393444,7.05222222 44.8442556,7.05222222 C44.2290333,7.05 43.7308667,6.54277778 43.7308667,5.91888889 C43.7308667,5.615 43.8462889,5.33111111 44.0569889,5.11555556 L44.0569889,5.11555556 Z"></path>
          <path d="M48.7925667,0.882222222 C48.6613556,0.775 48.4887667,0.733333333 48.3276111,0.772222222 L39.1700556,2.87111111 C39.0170667,2.90555556 38.8869444,3.00444444 38.8101778,3.14388889 C38.7334111,3.28277778 38.7170778,3.44777778 38.7671667,3.59833333 L38.9310444,4.09888889 L32.1309333,4.09888889 C31.4215222,3.65444444 28.1690111,1.65722222 25.2382667,0.567777778 C24.6007222,0.331111111 23.8150889,0.206666667 22.9657556,0.206666667 C21.4941222,0.206666667 20.0170444,0.580555556 19.0114556,1.20888889 C18.5573889,1.49555556 17.9710222,1.90166667 17.2888333,2.39444444 C17.2877444,2.39777778 17.2801222,2.40166667 17.2784889,2.40444444 C16.8222444,2.365 16.3779778,2.33444444 15.9424222,2.33444444 C14.1528333,2.33444444 12.3093444,2.69333333 10.2573333,3.44777778 C10.2567889,3.44444444 10.2524333,3.44222222 10.2518889,3.43888889 C10.2551556,3.33722222 10.2415444,3.235 10.192,3.14388889 C10.1146889,3.005 9.98402222,2.90611111 9.83157778,2.87111111 L0.674022222,0.773333333 C0.510144444,0.735555556 0.339188889,0.776111111 0.207977778,0.883333333 C0.0762222222,0.99 0,1.15166667 0,1.32277778 L0.000544444444,18.9822222 C0.000544444444,19.1322222 0.0588,19.275 0.162244444,19.3805556 C0.265688889,19.4861111 0.4067,19.5455556 0.552611111,19.5455556 L0.553155556,19.5455556 L4.62505556,19.5438889 C4.86243333,19.5438889 5.07313333,19.3877778 5.14772222,19.1583333 L5.19182222,19.0222222 C5.96112222,19.4027778 7.04728889,19.9377778 8.20423333,20.4988889 C8.27882222,20.9366667 8.51075556,21.3455556 8.89513333,21.6216667 C9.42596667,22.0005556 10.1386444,21.9966667 10.6907111,21.6894444 C11.1066667,21.8844444 11.4970333,22.065 11.8585444,22.2288889 C11.7529222,22.5138889 11.7164444,22.8216667 11.7703444,23.13 C11.8487444,23.5844444 12.0959222,23.9805556 12.4661444,24.2461111 C13.2060444,24.775 14.3052778,24.5727778 14.8186889,23.82 L15.1611444,23.3216667 C15.5553222,23.3977778 15.9614778,23.4655556 16.3709,23.5288889 L15.7262778,24.4694444 C15.4660333,24.8477778 15.3669444,25.3044444 15.4453444,25.7572222 C15.5237444,26.2094444 15.7703778,26.6055556 16.1411444,26.87 C16.8794111,27.3977778 17.9764667,27.1977778 18.4909667,26.4538889 C18.4915111,26.4516667 18.4931444,26.4516667 18.4936889,26.4494444 L19.2090889,25.4066667 L20.0965333,24.1138889 C20.4918,24.2005556 20.7961444,24.295 20.9366111,24.3955556 C20.9981333,24.4394444 21.0694556,24.49 21.1494889,24.5472222 L20.0714889,26.115 L19.3985556,27.0966667 C19.3980111,27.0966667 19.3974667,27.0977778 19.3963778,27.0988889 C18.8709889,27.8777778 19.0571889,28.9538889 19.8166889,29.5 C20.5549556,30.0255556 21.6558222,29.8244444 22.1686889,29.075 L23.9169,26.5238889 C24.7243111,27.1005556 25.3667556,27.5605556 25.3667556,27.5605556 L26.8743222,28.6366667 C27.3463556,28.9755556 27.9011444,29.1538889 28.4766222,29.1538889 C29.3869333,29.1538889 30.2428,28.6988889 30.7638333,27.9377778 C31.1340556,27.4005556 31.3066444,26.7661111 31.2663556,26.1211111 C32.4510667,26.6961111 33.9891222,26.2911111 34.7546111,25.1794444 C35.1221111,24.6416667 35.2854444,24.0222222 35.2571333,23.4161111 C36.4647111,24.1055556 38.1165556,23.7261111 38.9130778,22.5633333 C39.2898333,22.0133333 39.4488111,21.3705556 39.4068889,20.7433333 C40.5828889,21.2688889 42.0741222,20.8511111 42.8205556,19.7627778 C43.1641,19.26 43.3214444,18.6838889 43.3170889,18.1122222 L43.3170889,18.1111111 L43.5087333,18.1111111 L43.8522778,19.1583333 C43.9263222,19.3877778 44.1364778,19.5438889 44.3754889,19.5438889 L48.4473889,19.5438889 C48.7533667,19.5438889 49,19.2905556 49,18.98 L49,1.32166667 C49,1.15055556 48.9243222,0.988888889 48.7925667,0.882222222 L48.7925667,0.882222222 Z M4.15955556,8.17888889 C2.93727778,8.17888889 1.94203333,7.16444444 1.94203333,5.91888889 C1.94203333,4.67333333 2.9351,3.65611111 4.15737778,3.65388889 C5.38401111,3.65944444 6.37544444,4.675 6.37108889,5.91888889 C6.37217778,6.52055556 6.14242222,7.08944444 5.72428889,7.51611111 C5.30724444,7.94333333 4.75136667,8.17888889 4.15955556,8.17888889 L4.15955556,8.17888889 Z M41.9151444,19.1161111 C41.4006444,19.8688889 40.2981444,20.0716667 39.5577,19.5411111 L38.0975,18.4988889 L29.4239556,12.3011111 C29.1756889,12.1227778 28.8305111,12.1844444 28.6557444,12.44 C28.4815222,12.6944444 28.5414111,13.045 28.7918556,13.2233333 L36.2665333,18.5672222 L37.6167556,19.5305556 C38.3582889,20.0811111 38.5346889,21.1505556 38.0071222,21.9183333 C37.4942556,22.6694444 36.3961111,22.8694444 35.6540333,22.3411111 L30.5956,18.7288889 L28.0285444,16.8955556 C27.7781,16.7183333 27.4340111,16.7788889 27.2592444,17.0344444 C27.0850222,17.2883333 27.146,17.64 27.3953556,17.8183333 L28.7314222,18.7733333 L33.4838778,22.1666667 C34.2112556,22.7316667 34.3718667,23.7688889 33.8513778,24.5327778 C33.3325222,25.2833333 32.2354667,25.4877778 31.4917556,24.9555556 L23.6147333,19.3444444 L23.6103778,19.3411111 C23.3610222,19.1633333 23.0163889,19.2244444 22.8421667,19.48 C22.6674,19.735 22.7283778,20.0861111 22.9782778,20.2655556 L29.4473667,24.8888889 C29.8175889,25.1533333 30.0642222,25.5472222 30.1415333,26.0016667 C30.2199333,26.4544444 30.1197556,26.9127778 29.8589667,27.2922222 C29.3439222,28.0427778 28.2479556,28.245 27.5069667,27.715 L25.9999444,26.6377778 C25.9999444,26.6377778 25.2932556,26.1327778 24.4297667,25.5144444 C24.4308556,25.5066667 24.4363,25.5005556 24.4379333,25.4922222 C24.4744111,25.2922222 24.4804,25.0866667 24.4450111,24.8805556 C24.3666111,24.4272222 24.1199778,24.0316667 23.7486667,23.7644444 C23.4633778,23.56 23.1285444,23.4522222 22.7811889,23.4522222 C22.4752111,23.4522222 22.1833889,23.5433333 21.9264111,23.6988889 C21.9193333,23.7022222 21.9149778,23.71 21.9089889,23.7138889 C21.7794111,23.6211111 21.6607222,23.5372222 21.5698,23.4716667 C21.3808778,23.3366667 21.1113778,23.2261111 20.7721889,23.1283333 L20.7765444,23.1216667 L21.3242556,22.3227778 C21.8599889,21.5461111 21.6737889,20.4677778 20.9093889,19.9177778 C20.6257333,19.7166667 20.2909,19.6083333 19.943,19.6083333 C19.3893,19.6083333 18.8688111,19.8844444 18.5514,20.3444444 L17.0775889,22.4955556 C16.6692556,22.4361111 16.2592889,22.3733333 15.8591222,22.3038889 L15.8596667,22.3027778 L16.3616444,21.5711111 C16.6218889,21.1916667 16.7215222,20.7338889 16.6425778,20.2794444 C16.5636333,19.8272222 16.317,19.4338889 15.9473222,19.1716667 C15.8460556,19.0988889 15.7328111,19.0538889 15.6212,19.0066667 C15.1649556,19.0116667 14.7136111,19.0177778 14.2758778,19.0216667 C14.0063778,19.1483333 13.7673667,19.3383333 13.5931444,19.5922222 L13.1624889,20.2222222 C13.0824556,20.4266667 12.9866333,20.6261111 12.8592333,20.8111111 L12.5331111,21.2861111 L12.5249444,21.2972222 C12.2118889,21.1566667 11.8678,20.9983333 11.4997556,20.8261111 L11.5079222,20.815 L11.9543667,20.1644444 C12.0545444,20.0194444 12.1220556,19.8605556 12.1737778,19.6966667 C12.2402,19.4866667 12.2581667,19.2655556 12.2434667,19.0433333 C12.2396556,18.9861111 12.2456444,18.9311111 12.2358444,18.8744444 C12.1569,18.42 11.9097222,18.0244444 11.5378667,17.76 C11.2531222,17.5561111 10.9199222,17.4494444 10.5742,17.4494444 C10.0215889,17.4494444 9.50273333,17.7244444 9.1875,18.1866667 L8.58262222,19.0644444 L8.47808889,19.2161111 C8.45195556,19.2533333 8.43671111,19.2955556 8.41384444,19.3327778 C8.41166667,19.3372222 8.41112222,19.3427778 8.40894444,19.3477778 C8.21076667,19.2511111 8.02402222,19.1588889 7.83183333,19.0661111 C6.64167778,18.4838889 5.58708889,17.9627778 5.02957778,17.6844444 L8.9376,5.19611111 C11.5825111,4.00888889 13.7325222,3.47111111 15.8678333,3.45888889 C14.5132556,4.49055556 13.3568556,5.42722222 13.3056778,5.47277778 C12.6959,6.09555556 12.4906444,6.80944444 12.7432667,7.43333333 C12.9213,7.87111111 13.4853444,8.60833333 15.2667667,8.61055556 C17.3171444,8.60833333 20.1460778,6.34166667 20.8511333,5.74944444 L24.5130667,5.74722222 C25.0678556,5.74722222 25.5224667,5.74722222 25.7331667,5.74833333 C28.6072889,7.25 31.1787,9.34277778 31.2320556,9.38722222 L41.4981,16.7133333 C42.0115111,17.0805556 42.2570556,17.6872222 42.2053333,18.2822222 C42.1792,18.5755556 42.0899111,18.8622222 41.9151444,19.1161111 L41.9151444,19.1161111 Z M47.8958667,18.4161111 L44.7729333,18.4161111 L44.6716667,18.1038889 L40.0950667,4.09888889 L40.0079556,3.83277778 L47.8958667,2.02555556 L47.8958667,18.4161111 L47.8958667,18.4161111 Z"></path>
        </g>
        <ellipse stroke="currentColor" cx="31" cy="31" rx="31" ry="31"></ellipse>
      </g>
    </g>
  </g>

  <g id="icon-chevron-right" viewBox="0 0 12 20">
      <g stroke="none" stroke-width="1" fill="none" fill-rule="evenodd">
          <g transform="translate(-927.000000, -1581.000000)" fill="currentColor">
              <g transform="translate(0.000000, 1401.000000)">
                  <g transform="translate(933.000000, 190.000000) rotate(-180.000000) translate(-933.000000, -190.000000) translate(927.000000, 180.000000)">
                      <path d="M10.293,19.707 L0.586,10 L10.293,0.293 L11.707,1.707 L3.414,10 L11.707,18.293 L10.293,19.707"></path>
                  </g>
              </g>
          </g>
      </g>
  </g>

  <g id="nav">
    <path d="M0 0h18v18h-18z" fill="none"></path>
    <path d="M9 5.5c.83 0 1.5-.67 1.5-1.5s-.67-1.5-1.5-1.5-1.5.67-1.5 1.5.67 1.5 1.5 1.5zm0 2c-.83 0-1.5.67-1.5 1.5s.67 1.5 1.5 1.5 1.5-.67 1.5-1.5-.67-1.5-1.5-1.5zm0 5c-.83 0-1.5.67-1.5 1.5s.67 1.5 1.5 1.5 1.5-.67 1.5-1.5-.67-1.5-1.5-1.5z"></path>
  </g>

</svg>
