<svg xmlns="http://www.w3.org/2000/svg">
  <!-- Build Icons upon one Size like 60x60 px and dont mix them up in one icon set-->
  <!-- see here: https://www.google.com/design/spec/style/icons.html#icons-product-icons -->
  <symbol id="icon-build" viewBox="0 0 60 60">
    <!-- currentColor is the easiest way to controll the color from the outside -->
    <g fill="currentColor">
      <path d="M4 11h13v8H4zM19 11h24v8H19zM4 31h13v8H4zM19 31h24v8H19zM4 21h25v8H4zM31 21h25v8H31zM4 41h25v8H4zM31 41h25v8H31z"></path>
    </g>
  </symbol>
  <symbol id="icon-category-concept" viewBox="0 0 60 60">
    <path class="icon-background" d="M60 58c0 1.1-.9 2-2 2H2c-1.1 0-2-.9-2-2V2C0 .9.9 0 2 0h56c1.1 0 2 .9 2 2v56z"></path>
    <path fill="currentColor" d="M30 42.21L15.35 51l3.87-16.64L6.33 23.11l16.99-1.41L30 6l6.68 15.7 16.99 1.41-12.89 11.25L44.65 51 30 42.21z"></path>
  </symbol>
  <symbol id="icon-category-default" viewBox="0 0 60 60">
    <path d="M60 58c0 1.1-.9 2-2 2H2c-1.1 0-2-.9-2-2V2C0 .9.9 0 2 0h56c1.1 0 2 .9 2 2v56z"></path>
    <path fill="currentColor" d="M34.5 35.99h-9L24 9.01h12l-1.5 26.98zm1.5 15H24V42h12v8.99z"></path>
  </symbol>
  <symbol id="icon-check" viewBox="0 0 60 60">
    <path fill="currentColor" d="M23.87 43.52L12.6 31.38l5.13-4.76 6.65 7.15 19.48-17.05 4.61 5.27z"></path>
  </symbol>
  <symbol id="icon-financial" viewBox="0 0 60 60">
    <path fill="currentColor" d="M56.59 45.95c0 .97-.8 1.77-1.77 1.77H5.19c-.97 0-1.77-.8-1.77-1.77v-31.9c0-.97.8-1.77 1.77-1.77h49.63c.97 0 1.77.8 1.77 1.77v31.9zm-3.55-23.04c-3.91 0-7.09-3.18-7.09-7.09h-31.9c0 3.91-3.18 7.09-7.09 7.09v14.18c3.91 0 7.09 3.18 7.09 7.09h31.9c0-3.91 3.18-7.09 7.09-7.09V22.91zM30 41.52c-5.82 0-8.86-6.48-8.86-11.52S24.18 18.48 30 18.48s8.86 6.48 8.86 11.52S35.82 41.52 30 41.52zm5.32-4.43v-2.66h-3.54V22.02h-3.16l-4.1 3.79 2.13 2.21c.66-.58 1.08-.89 1.52-1.58h.06v7.98h-3.54v2.66h10.63z"></path>
  </symbol>
  <symbol id="icon-hammer" viewBox="0 0 60 60">
    <path fill="currentColor" d="M51.82 48.97L49 51.82c-.63.61-1.5.97-2.4.97-.9 0-1.77-.37-2.37-.97l-9.56-9.59c-.63-.61-1-1.47-1-2.37 0-1 .42-1.82 1.13-2.53l-6.74-6.74-3.32 3.32c-.24.24-.55.37-.9.37-.34 0-.66-.13-.89-.37.79.79 1.53 1.37 1.53 2.58 0 .68-.26 1.29-.74 1.79-.89.95-1.84 2.21-3.27 2.21-.66 0-1.32-.26-1.79-.74L7.94 29.01c-.47-.47-.74-1.13-.74-1.79 0-1.42 1.26-2.37 2.21-3.27.5-.47 1.11-.74 1.79-.74 1.21 0 1.79.74 2.58 1.53-.24-.24-.37-.55-.37-.9 0-.34.13-.66.37-.89l9.17-9.17c.24-.24.55-.37.89-.37.34 0 .66.13.9.37-.79-.79-1.53-1.37-1.53-2.58 0-.69.26-1.29.74-1.79.9-.95 1.84-2.21 3.27-2.21.66 0 1.32.26 1.79.74l10.75 10.74c.47.47.74 1.13.74 1.79 0 1.42-1.26 2.37-2.21 3.27-.5.47-1.11.74-1.79.74-1.21 0-1.79-.74-2.58-1.53.24.24.37.55.37.89 0 .34-.13.66-.37.9l-3.32 3.32 6.74 6.74c.71-.71 1.53-1.13 2.53-1.13.89 0 1.76.37 2.4.97l9.56 9.56c.61.63.97 1.5.97 2.4-.01.9-.37 1.77-.98 2.37z"></path>
  </symbol>
  <g id="icon-hammer2" viewBox="0 0 60 60">
    <path fill="currentColor" d="M51.82 48.97L49 51.82c-.63.61-1.5.97-2.4.97-.9 0-1.77-.37-2.37-.97l-9.56-9.59c-.63-.61-1-1.47-1-2.37 0-1 .42-1.82 1.13-2.53l-6.74-6.74-3.32 3.32c-.24.24-.55.37-.9.37-.34 0-.66-.13-.89-.37.79.79 1.53 1.37 1.53 2.58 0 .68-.26 1.29-.74 1.79-.89.95-1.84 2.21-3.27 2.21-.66 0-1.32-.26-1.79-.74L7.94 29.01c-.47-.47-.74-1.13-.74-1.79 0-1.42 1.26-2.37 2.21-3.27.5-.47 1.11-.74 1.79-.74 1.21 0 1.79.74 2.58 1.53-.24-.24-.37-.55-.37-.9 0-.34.13-.66.37-.89l9.17-9.17c.24-.24.55-.37.89-.37.34 0 .66.13.9.37-.79-.79-1.53-1.37-1.53-2.58 0-.69.26-1.29.74-1.79.9-.95 1.84-2.21 3.27-2.21.66 0 1.32.26 1.79.74l10.75 10.74c.47.47.74 1.13.74 1.79 0 1.42-1.26 2.37-2.21 3.27-.5.47-1.11.74-1.79.74-1.21 0-1.79-.74-2.58-1.53.24.24.37.55.37.89 0 .34-.13.66-.37.9l-3.32 3.32 6.74 6.74c.71-.71 1.53-1.13 2.53-1.13.89 0 1.76.37 2.4.97l9.56 9.56c.61.63.97 1.5.97 2.4-.01.9-.37 1.77-.98 2.37z"></path>
  </g>
  <g id="icon-category-concept2" viewBox="0 0 60 60">
    <g class="icon-flip">
      <!-- You can also apply classes and access them later via CSS -->
      <path class="icon-background" d="M60 58c0 1.1-.9 2-2 2H2c-1.1 0-2-.9-2-2V2C0 .9.9 0 2 0h56c1.1 0 2 .9 2 2v56z"></path>
      <path class="list-icon" d="M30 42.21L15.35 51l3.87-16.64L6.33 23.11l16.99-1.41L30 6l6.68 15.7 16.99 1.41-12.89 11.25L44.65 51 30 42.21z"></path>
    </g>
  </g>
</svg>
